<svg width="20" height="20" viewBox="0 0 20 20" fill="none" xmlns="http://www.w3.org/2000/svg">
<path d="M11.4365 16.2761C12.4246 14.414 15.7182 14.414 15.7182 14.414C19.1502 14.3782 19.6138 12.2944 19.9237 11.2412C19.369 15.7226 15.8494 19.2849 11.3885 19.9046C11.0659 19.2256 10.6837 17.6945 11.4365 16.2761Z" fill="black"/>
<path d="M3.00602 3.8339L2.59438 3.48184C2.56011 3.45252 2.52734 3.42182 2.49611 3.38985C0.942518 5.15213 0 7.466 0 10C0 15.4608 4.37707 19.8992 9.81417 19.9983C9.46079 18.9435 9.23025 17.234 10.1116 15.5732C10.9217 14.0465 12.5516 13.4456 13.5899 13.1903C14.1567 13.051 14.6778 12.9831 15.0542 12.9493C15.2442 12.9323 15.4018 12.9235 15.5156 12.919C15.5726 12.9168 15.6189 12.9156 15.6531 12.9149L15.6952 12.9143L15.7064 12.9143C17.0872 12.8991 17.6231 12.4916 17.8704 12.2132C18.1763 11.8688 18.2962 11.4605 18.4632 10.8917L18.4849 10.818C18.683 10.1447 19.3156 9.70927 19.9968 9.74305C19.934 7.25352 18.9613 4.99003 17.3989 3.27266C17.3673 3.45036 17.3297 3.61557 17.2921 3.76183C17.1225 4.4234 16.8378 5.13716 16.4884 5.66739C16.1465 6.1863 15.5392 6.64995 15.1355 6.94003C14.8308 7.15893 14.5194 7.34078 14.2628 7.48867L14.1707 7.54169C13.939 7.67497 13.7548 7.78114 13.5794 7.89699C13.2234 8.13219 13.0099 8.34109 12.8652 8.62412C12.9532 8.9464 13.0157 9.31676 13.0167 9.70411C13.0191 10.6256 12.5474 11.3537 11.9836 11.8081C11.4289 12.2551 10.7112 12.5078 9.98398 12.4999C7.03417 12.4677 5.30397 10.0613 5.08118 7.5816C5.0164 6.8606 4.69205 6.08373 4.23879 5.35988C3.798 4.65591 3.29975 4.10474 3.00602 3.8339Z" fill="black"/>
<path d="M6.57516 7.44737C6.3879 5.36316 4.7806 3.42105 4.00035 2.71053L3.56934 2.34189C5.30792 0.880366 7.55132 0 10.0004 0C12.2137 0 14.2592 0.719103 15.9158 1.93642C16.1498 2.64695 15.704 4.13158 15.2359 4.84211C15.0663 5.09947 14.6818 5.41898 14.2602 5.72186C13.3097 6.40477 12.1102 6.74254 11.5004 8C11.326 8.35945 11.3335 8.71083 11.4173 9.01626C11.4776 9.23584 11.5161 9.47453 11.5167 9.70797C11.5187 10.4629 10.7552 11.0082 10.0004 11C8.03606 10.9786 6.7502 9.39554 6.57516 7.44737Z" fill="black"/>
</svg>
